PathFileType	3	(X/Y/Z)	C:\Users\koon_\Desktop\																																																																															
DataRate	CameraRate	NumFrames	NumMarkers	Units	OrigDataRate	OrigDataStartFrame	OrigNumFrames																																																																											
100	100	7	27	mm	100	272	2174																																																																											
Frame#	Time	get:LFHD			get:RFHD			get:LBHD			get:RBHD			get:C7			get:T10			get:CLAV			get:STRN			get:RBAK			get:LSHO			get:LUPA			get:LELB			get:LFRA			get:LWRA			get:LWRB			get:LFIN			get:RSHO			get:RUPA			get:RELB			get:RFRA			get:RWRA			get:RWRB			get:RFIN			get:LASI			get:RASI			get:LPSI			get:RPSI		
		X1	Y1	Z1	X2	Y2	Z2	X3	Y3	Z3	X4	Y4	Z4	X5	Y5	Z5	X6	Y6	Z6	X7	Y7	Z7	X8	Y8	Z8	X9	Y9	Z9	X10	Y10	Z10	X11	Y11	Z11	X12	Y12	Z12	X13	Y13	Z13	X14	Y14	Z14	X15	Y15	Z15	X16	Y16	Z16	X17	Y17	Z17	X18	Y18	Z18	X19	Y19	Z19	X20	Y20	Z20	X21	Y21	Z21	X22	Y22	Z22	X23	Y23	Z23	X24	Y24	Z24	X25	Y25	Z25	X26	Y26	Z26	X27	Y27	Z27
272	2.71	60.956451	1541.5864	-11.205342	-84.685112	1535.52	-26.259548	71.525726	1525.0801	-148.64499	-77.372482	1513.7808	-157.92535	-9.002045	1321.795	-212.6741	2.941853	1104.2632	-232.28584	4.1504035	1250.5208	-10.692252	4.6984034	1096.198	33.906441	-92.289421	1242.8389	-231.3614	156.14819	1327.3051	-148.03545	314.74582	1213.9431	-120.13407	388.7887	1135.6364	-160.59377	331.92322	1203.9846	-148.57123	298.92542	1341.2843	-89.931458	365.89304	1354.5525	-118.58396	328.20102	1424.8641	-118.68222	-130.549	1336.9171	-119.05201	-249.38161	1261.0624	-111.70445	-385.20212	1129.8809	-182.62605	-366.55515	1268.4913	-151.55096	-376.01303	1362.4432	-130.47768	-442.08676	1340.3367	-149.5602	-414.34161	1426.814	-162.13646	142.70291	887.61237	-42.586357	-155.61061	895.74463	-37.941959	44.064461	922.99353	-224.86481	-43.926464	918.68677	-227.47852
273	2.72	60.808754	1541.5769	-10.967185	-84.85524	1535.4954	-26.153698	71.455322	1525.1154	-148.41393	-77.455658	1513.8033	-157.8136	-8.964253	1321.823	-212.5476	3.0238681	1104.2971	-232.20953	4.0424523	1250.5072	-10.588957	4.5770345	1096.1787	33.998684	-92.21991	1242.8616	-231.3405	156.18927	1327.3634	-147.81575	314.68988	1213.8499	-119.72917	388.70026	1135.4863	-160.1721	331.94958	1203.8861	-148.27164	299.26428	1341.323	-89.512337	366.28149	1354.4393	-118.19918	328.66141	1424.848	-118.30757	-130.61293	1336.8693	-119.01088	-249.43228	1261.0029	-111.71011	-385.22165	1129.8203	-182.74486	-366.54288	1268.3995	-151.62552	-375.91486	1362.3802	-130.58244	-442.05582	1340.2999	-149.61014	-414.54828	1426.8564	-161.87004	142.6218	887.57849	-42.395561	-155.64438	895.72253	-38.089516	44.210255	922.97992	-224.79562	-43.761963	918.72076	-227.52127
274	2.73	60.660019	1541.5516	-10.783938	-85.01487	1535.4369	-26.056553	71.39782	1525.1583	-148.24983	-77.494682	1513.7996	-157.7001	-8.926836	1321.842	-212.4034	3.1304269	1104.3251	-232.16905	3.9343121	1250.5004	-10.50838	4.4713421	1096.151	34.108047	-92.188354	1242.8866	-231.35793	156.21794	1327.3849	-147.5724	314.61859	1213.7169	-119.36909	388.5705	1135.2874	-159.80183	331.95129	1203.7798	-147.90633	299.61429	1341.3333	-89.076508	366.56668	1354.288	-117.82875	329.12402	1424.7803	-117.97385	-130.6989	1336.8588	-118.99102	-249.48628	1260.9019	-111.76318	-385.19138	1129.6522	-182.74245	-366.47446	1268.2943	-151.72609	-375.83597	1362.2786	-130.74094	-442.40594	1340.0229	-149.63098	-414.52087	1426.7534	-161.94101	142.5722	887.55194	-42.19487	-155.72202	895.75494	-38.216213	44.346161	922.97168	-224.73924	-43.640438	918.70251	-227.54842
275	2.74	60.500149	1541.5261	-10.537604	-85.200195	1535.3866	-25.956888	71.331802	1525.1941	-147.99721	-77.577698	1513.8142	-157.52966	-8.929376	1321.824	-212.3427	3.2109036	1104.3125	-232.1196	3.80056	1250.4839	-10.412453	4.3517838	1096.1207	34.163658	-92.171722	1242.8694	-231.30632	156.21371	1327.4106	-147.40714	314.52948	1213.5396	-118.93577	388.40567	1135.0674	-159.45879	331.94977	1203.6692	-147.56201	299.86505	1341.291	-88.725883	366.83841	1354.1031	-117.50362	329.54776	1424.6505	-117.64867	-130.77464	1336.8621	-119.00395	-249.53795	1260.8165	-111.80972	-385.2113	1129.4827	-182.75864	-366.41232	1268.1915	-151.84914	-375.76364	1362.1411	-130.88884	-442.38461	1339.8722	-149.67535	-414.50858	1426.6366	-162.03857	142.54288	887.54651	-42.009674	-155.81223	895.73834	-38.323959	44.469013	922.95502	-224.63622	-43.515175	918.66882	-227.52158
276	2.75	60.379601	1541.4388	-10.344883	-85.372772	1535.3302	-25.800581	71.24752	1525.2397	-147.76622	-77.631371	1513.8289	-157.3884	-8.974429	1321.829	-212.2239	3.2597606	1104.325	-232.08379	3.6542785	1250.4479	-10.379209	4.2355094	1096.1196	34.281181	-92.144859	1242.8577	-231.25494	156.22911	1327.431	-147.21764	314.41083	1213.4515	-118.79282	388.21918	1134.7911	-159.11871	331.83823	1203.521	-147.18707	300.18158	1341.1707	-88.346756	367.1413	1353.8617	-117.21595	329.96976	1424.4275	-117.3479	-130.85693	1336.8265	-119.00685	-249.59624	1260.7272	-111.85353	-385.14029	1129.3785	-182.92905	-366.36868	1268.0417	-152.00537	-375.72815	1362.0054	-131.10138	-441.88092	1339.9277	-149.88721	-414.495	1426.4781	-162.16409	142.50168	887.52112	-41.886158	-155.82664	895.73785	-38.426483	44.600506	922.91461	-224.56563	-43.386284	918.66046	-227.54585
277	2.76	60.197422	1541.3937	-10.080367	-85.516251	1535.2693	-25.672754	71.183418	1525.2683	-147.52654	-77.69883	1513.8716	-157.26326	-8.927557	1321.867	-212.255	3.3188059	1104.3619	-232.09535	3.5543573	1250.458	-10.29927	4.1012216	1096.1667	34.268089	-92.13147	1242.8591	-231.26477	156.2148	1327.429	-147.05925	314.26996	1213.3087	-118.69244	388.00223	1134.4491	-158.77501	332.14966	1203.6211	-145.1028	300.50366	1341.0461	-87.886467	367.41675	1353.5638	-116.94482	330.38483	1424.1996	-116.98946	-130.91106	1336.8024	-119.04703	-249.6705	1260.6431	-111.92874	-385.08713	1129.2197	-183.14781	-366.32446	1267.873	-152.19667	-375.71613	1361.8254	-131.26523	-441.81393	1339.7527	-150.09067	-414.5209	1426.3094	-162.39655	142.46407	887.4881	-41.718563	-155.86459	895.7373	-38.456997	44.732327	922.93243	-224.45016	-43.278584	918.65759	-227.51012
278	2.77	60.010628	1541.318	-9.8386745	-85.693596	1535.1783	-25.580711	71.117218	1525.344	-147.28232	-77.782074	1513.8842	-157.06824	-8.920236	1321.815	-212.2337	3.3976943	1104.3076	-231.95341	3.4257259	1250.4708	-10.266303	3.978507	1096.1687	34.345039	-92.122978	1242.8712	-231.26135	156.23819	1327.4141	-146.93243	314.08331	1213.2217	-118.79502	387.75662	1134.0675	-158.46562	331.58008	1203.1956	-146.39417	300.79996	1340.8982	-87.503365	367.72824	1353.2206	-116.65939	330.91016	1423.9667	-116.71246	-130.99821	1336.7778	-119.03476	-249.73204	1260.5735	-112.02795	-384.9577	1129.0277	-183.34486	-366.29276	1267.657	-152.38158	-375.68478	1361.6079	-131.49733	-441.87277	1339.4781	-150.21388	-414.50922	1426.1293	-162.67653	142.40685	887.48596	-41.491844	-155.89424	895.74738	-38.496914	44.852486	922.91357	-224.33009	-43.147007	918.65625	-227.49486
